<svg width="24" height="19" viewBox="0 0 24 19" fill="none" xmlns="http://www.w3.org/2000/svg">
<path d="M2.66659 18.1665H0.333252C0.333252 16.31 1.07075 14.5295 2.3835 13.2168C3.69626 11.904 5.47674 11.1665 7.33325 11.1665C9.18977 11.1665 10.9702 11.904 12.283 13.2168C13.5958 14.5295 14.3333 16.31 14.3333 18.1665H11.9999C11.9999 16.9288 11.5083 15.7418 10.6331 14.8667C9.75791 13.9915 8.57093 13.4998 7.33325 13.4998C6.09557 13.4998 4.90859 13.9915 4.03342 14.8667C3.15825 15.7418 2.66659 16.9288 2.66659 18.1665ZM16.6596 13.9782L13.5026 10.8282L15.1499 9.17384L16.6573 10.6812L21.6739 5.67384L23.3213 7.32584L16.6573 13.9758L16.6596 13.9782ZM7.33325 9.99984C6.09557 9.99984 4.90859 9.50817 4.03342 8.633C3.15825 7.75783 2.66659 6.57085 2.66659 5.33317C2.66659 4.09549 3.15825 2.90851 4.03342 2.03334C4.90859 1.15817 6.09557 0.666504 7.33325 0.666504C8.57093 0.666504 9.75791 1.15817 10.6331 2.03334C11.5083 2.90851 11.9999 4.09549 11.9999 5.33317C11.9999 6.57085 11.5083 7.75783 10.6331 8.633C9.75791 9.50817 8.57093 9.99984 7.33325 9.99984ZM7.33325 2.99984C6.87633 3.0003 6.42961 3.1349 6.0485 3.38695C5.66738 3.639 5.36866 3.99739 5.18939 4.41767C5.01011 4.83795 4.95818 5.30161 5.04002 5.75114C5.12187 6.20066 5.3339 6.61627 5.6498 6.94639C5.9657 7.27651 6.37158 7.50661 6.81707 7.60815C7.26256 7.7097 7.72806 7.67821 8.15582 7.51759C8.58358 7.35698 8.95477 7.07431 9.22333 6.70465C9.4919 6.335 9.64602 5.89462 9.66658 5.43817V5.90484V5.33317C9.66658 4.71433 9.42075 4.12084 8.98317 3.68325C8.54558 3.24567 7.95209 2.99984 7.33325 2.99984Z" fill="#1B998B"/>
</svg>
