<svg width="24" height="24" viewBox="0 0 24 24" fill="none" xmlns="http://www.w3.org/2000/svg">
<path d="M10.8333 8.50016H13.1666V6.16683H10.8333V8.50016ZM11.9999 21.3335C6.85492 21.3335 2.66659 17.1452 2.66659 12.0002C2.66659 6.85516 6.85492 2.66683 11.9999 2.66683C17.1449 2.66683 21.3333 6.85516 21.3333 12.0002C21.3333 17.1452 17.1449 21.3335 11.9999 21.3335ZM11.9999 0.333496C10.4678 0.333496 8.95074 0.635263 7.53528 1.22157C6.11981 1.80787 4.83369 2.66723 3.75034 3.75058C1.56242 5.93851 0.333252 8.90597 0.333252 12.0002C0.333252 15.0944 1.56242 18.0618 3.75034 20.2497C4.83369 21.3331 6.11981 22.1925 7.53528 22.7788C8.95074 23.3651 10.4678 23.6668 11.9999 23.6668C15.0941 23.6668 18.0616 22.4377 20.2495 20.2497C22.4374 18.0618 23.6666 15.0944 23.6666 12.0002C23.6666 10.4681 23.3648 8.95099 22.7785 7.53552C22.1922 6.12006 21.3328 4.83393 20.2495 3.75058C19.1661 2.66723 17.88 1.80787 16.4646 1.22157C15.0491 0.635263 13.532 0.333496 11.9999 0.333496ZM10.8333 17.8335H13.1666V10.8335H10.8333V17.8335Z" fill="#1B998B"/>
</svg>
