<svg width="24" height="26" viewBox="0 0 24 26" fill="none" xmlns="http://www.w3.org/2000/svg">
<path d="M10.8672 1.96337C11.2137 1.77091 11.6036 1.66992 12 1.66992C12.3964 1.66992 12.7863 1.77091 13.1328 1.96337L21.9003 6.83304C22.0821 6.93412 22.2335 7.08195 22.339 7.26123C22.4444 7.44051 22.5 7.64472 22.5 7.8527V17.4602C22.4999 17.8763 22.3885 18.2848 22.1775 18.6434C21.9664 19.0019 21.6633 19.2975 21.2995 19.4995L13.1328 24.0379C12.7863 24.2303 12.3964 24.3313 12 24.3313C11.6036 24.3313 11.2137 24.2303 10.8672 24.0379L2.7005 19.4995C2.33691 19.2976 2.0339 19.0022 1.82283 18.6439C1.61176 18.2855 1.50031 17.8773 1.5 17.4614V7.8527C1.49999 7.64472 1.55558 7.44051 1.66102 7.26123C1.76645 7.08195 1.9179 6.93412 2.09967 6.83304L10.8683 1.96337H10.8672Z" stroke="#1B998B" stroke-width="2" stroke-linecap="round" stroke-linejoin="round"/>
<path d="M12 12.9998V24.6665M1.5 7.1665L12 12.9998L1.5 7.1665ZM12 12.9998L22.5 7.1665L12 12.9998Z" stroke="#1B998B" stroke-width="2" stroke-linejoin="round"/>
<path d="M5 13.3827L8.5 15.3333M6.75 10.0833L17.25 4.25L6.75 10.0833Z" stroke="#1B998B" stroke-width="2" stroke-linecap="round" stroke-linejoin="round"/>
</svg>
