<svg width="44" height="44" viewBox="0 0 44 44" fill="none" xmlns="http://www.w3.org/2000/svg">
<path d="M35.6915 9.22657C34.5612 6.52783 32.6585 4.22332 30.2225 2.60257C27.7866 0.98182 24.9259 0.117126 22 0.117126C19.0742 0.117126 16.2135 0.98182 13.7776 2.60257C11.3416 4.22332 9.43894 6.52783 8.30864 9.22657C5.87658 10.3536 3.81554 12.1496 2.36638 14.4046C0.917228 16.6596 0.13983 19.2805 0.125046 21.9609C0.105515 29.5391 6.25786 35.8672 13.8165 36.0625C16.11 36.1224 18.3833 35.6195 20.4375 34.5977V42.3125C20.4375 42.7269 20.6022 43.1243 20.8952 43.4174C21.1882 43.7104 21.5856 43.875 22 43.875C22.4144 43.875 22.8119 43.7104 23.1049 43.4174C23.3979 43.1243 23.5625 42.7269 23.5625 42.3125V34.5977C25.5051 35.5613 27.6441 36.0626 29.8126 36.0625H30.1836C37.7422 35.8672 43.8946 29.5391 43.8751 21.9609C43.8603 19.2805 43.0829 16.6596 41.6337 14.4046C40.1846 12.1496 38.1235 10.3536 35.6915 9.22657ZM30.1055 32.9375C27.8447 32.9961 25.6209 32.3549 23.7383 31.1016L23.5625 30.9844V22.957L32.0782 18.7188C32.4511 18.5323 32.7347 18.2053 32.8666 17.8097C32.9985 17.4141 32.9678 16.9823 32.7813 16.6094C32.5948 16.2364 32.2678 15.9528 31.8722 15.8209C31.4767 15.6891 31.0449 15.7198 30.6719 15.9063L23.5625 19.4805V14.1875C23.5625 13.7731 23.3979 13.3757 23.1049 13.0826C22.8119 12.7896 22.4144 12.625 22 12.625C21.5856 12.625 21.1882 12.7896 20.8952 13.0826C20.6022 13.3757 20.4375 13.7731 20.4375 14.1875V24.168L13.3282 20.5938C13.1435 20.5014 12.9425 20.4464 12.7365 20.4317C12.5306 20.4171 12.3237 20.4432 12.1279 20.5084C11.932 20.5737 11.7509 20.677 11.5949 20.8123C11.4389 20.9475 11.3111 21.1122 11.2188 21.2969C11.1265 21.4816 11.0714 21.6826 11.0568 21.8885C11.0421 22.0945 11.0682 22.3013 11.1335 22.4972C11.1988 22.6931 11.302 22.8742 11.4373 23.0301C11.5726 23.1861 11.7373 23.3139 11.9219 23.4063L20.4375 27.6445V30.9844L20.2618 31.1016C18.3792 32.3549 16.1554 32.9961 13.8946 32.9375C8.01567 32.7812 3.23052 27.8594 3.25005 21.9609C3.26371 19.8766 3.86951 17.8391 4.99682 16.0859C6.12413 14.3327 7.72653 12.936 9.61724 12.0586C10.3244 11.7289 10.887 11.1525 11.1993 10.4375C12.0941 8.31188 13.5962 6.49753 15.5175 5.22174C17.4387 3.94594 19.6938 3.26543 22 3.26543C24.3063 3.26543 26.5614 3.94594 28.4826 5.22174C30.4039 6.49753 31.906 8.31188 32.8008 10.4375C33.1131 11.1525 33.6757 11.7289 34.3829 12.0586C36.2736 12.936 37.876 14.3327 39.0033 16.0859C40.1306 17.8391 40.7364 19.8766 40.7501 21.9609C40.7696 27.8594 35.9844 32.7812 30.1055 32.9375Z" fill="#1B998B"/>
</svg>
