<svg width="41" height="41" viewBox="0 0 41 41" fill="none" xmlns="http://www.w3.org/2000/svg">
<path d="M9.61111 11.5972C10.708 11.5972 11.5972 10.708 11.5972 9.61111C11.5972 8.51421 10.708 7.625 9.61111 7.625C8.51421 7.625 7.625 8.51421 7.625 9.61111C7.625 10.708 8.51421 11.5972 9.61111 11.5972Z" fill="#1B998B"/>
<path d="M39.3473 21.6667L19.0696 1.38888C18.8139 1.12806 18.5094 0.92021 18.1734 0.777218C17.8373 0.634225 17.4764 0.558896 17.1112 0.555542H3.33344C2.59673 0.555542 1.89019 0.8482 1.36926 1.36913C0.848322 1.89007 0.555664 2.59661 0.555664 3.33332V17.1111C0.558765 17.8466 0.853459 18.5509 1.37511 19.0694L21.6529 39.3472C21.9109 39.6055 22.2172 39.8104 22.5544 39.9501C22.8917 40.0899 23.2531 40.1619 23.6182 40.1619C23.9832 40.1619 24.3447 40.0899 24.6819 39.9501C25.0191 39.8104 25.3255 39.6055 25.5834 39.3472L39.3334 25.5972C39.5926 25.3401 39.7986 25.0345 39.9396 24.6978C40.0806 24.3611 40.1538 23.9999 40.1551 23.6348C40.1564 23.2698 40.0857 22.908 39.9471 22.5703C39.8085 22.2326 39.6047 21.9255 39.3473 21.6667ZM23.639 37.3889L3.33344 17.0972V3.33332H17.1112L37.389 23.6389L23.639 37.3889Z" fill="#1B998B"/>
</svg>
