<svg width="50" height="50" viewBox="0 0 50 50" fill="none" xmlns="http://www.w3.org/2000/svg">
<path fill-rule="evenodd" clip-rule="evenodd" d="M32.3563 19.2062C32.5018 19.3514 32.6172 19.5238 32.696 19.7136C32.7748 19.9035 32.8153 20.107 32.8153 20.3125C32.8153 20.518 32.7748 20.7215 32.696 20.9113C32.6172 21.1012 32.5018 21.2736 32.3563 21.4187L22.9813 30.7937C22.8361 30.9392 22.6637 31.0547 22.4739 31.1335C22.284 31.2122 22.0805 31.2528 21.875 31.2528C21.6695 31.2528 21.466 31.2122 21.2762 31.1335C21.0863 31.0547 20.9139 30.9392 20.7688 30.7937L16.0813 26.1062C15.936 25.961 15.8208 25.7885 15.7421 25.5987C15.6635 25.4089 15.623 25.2054 15.623 25C15.623 24.7945 15.6635 24.5911 15.7421 24.4013C15.8208 24.2115 15.936 24.039 16.0813 23.8937C16.2265 23.7485 16.399 23.6332 16.5888 23.5546C16.7786 23.476 16.9821 23.4355 17.1875 23.4355C17.393 23.4355 17.5964 23.476 17.7862 23.5546C17.976 23.6332 18.1485 23.7485 18.2938 23.8937L21.875 27.4781L30.1438 19.2062C30.2889 19.0607 30.4613 18.9453 30.6512 18.8665C30.841 18.7877 31.0445 18.7472 31.25 18.7472C31.4555 18.7472 31.659 18.7877 31.8489 18.8665C32.0387 18.9453 32.2111 19.0607 32.3563 19.2062Z" fill="#1B998B"/>
<path d="M32.1031 7.85311L29.2249 4.90311L31.4593 2.72186L33.4031 4.71249L36.1843 4.67811C37.3882 4.66386 38.5828 4.89048 39.6979 5.34464C40.8129 5.7988 41.8259 6.47132 42.6772 7.32267C43.5286 8.17402 44.2011 9.18701 44.6553 10.3021C45.1094 11.4171 45.3361 12.6117 45.3218 13.8156L45.2906 16.5969L47.2781 18.5406C48.1389 19.3818 48.8229 20.3865 49.2899 21.4958C49.7569 22.605 49.9974 23.7964 49.9974 25C49.9974 26.2035 49.7569 27.395 49.2899 28.5042C48.8229 29.6135 48.1389 30.6182 47.2781 31.4594L45.2874 33.4031L45.3218 36.1844C45.3361 37.3883 45.1094 38.5829 44.6553 39.6979C44.2011 40.813 43.5286 41.826 42.6772 42.6773C41.8259 43.5287 40.8129 44.2012 39.6979 44.6553C38.5828 45.1095 37.3882 45.3361 36.1843 45.3219L33.4031 45.2906L31.4593 47.2781C30.6182 48.1389 29.6134 48.8229 28.5042 49.2899C27.3949 49.7569 26.2035 49.9975 24.9999 49.9975C23.7964 49.9975 22.605 49.7569 21.4957 49.2899C20.3864 48.8229 19.3817 48.1389 18.5406 47.2781L16.5968 45.2875L13.8156 45.3219C12.6116 45.3361 11.417 45.1095 10.302 44.6553C9.18695 44.2012 8.17396 43.5287 7.32261 42.6773C6.47126 41.826 5.79873 40.813 5.34458 39.6979C4.89042 38.5829 4.6638 37.3883 4.67805 36.1844L4.7093 33.4031L2.7218 31.4594C1.86099 30.6182 1.17699 29.6135 0.709999 28.5042C0.243006 27.395 0.00244141 26.2035 0.00244141 25C0.00244141 23.7964 0.243006 22.605 0.709999 21.4958C1.17699 20.3865 1.86099 19.3818 2.7218 18.5406L4.71243 16.5969L4.67805 13.8156C4.6638 12.6117 4.89042 11.4171 5.34458 10.3021C5.79873 9.18701 6.47126 8.17402 7.32261 7.32267C8.17396 6.47132 9.18695 5.7988 10.302 5.34464C11.417 4.89048 12.6116 4.66386 13.8156 4.67811L16.5968 4.70936L18.5406 2.72186C19.3817 1.86105 20.3864 1.17705 21.4957 0.71006C22.605 0.243067 23.7964 0.00250244 24.9999 0.00250244C26.2035 0.00250244 27.3949 0.243067 28.5042 0.71006C29.6134 1.17705 30.6182 1.86105 31.4593 2.72186L29.2249 4.90311C28.6748 4.33995 28.0177 3.89244 27.2921 3.58691C26.5665 3.28138 25.7872 3.12399 24.9999 3.12399C24.2127 3.12399 23.4333 3.28138 22.7078 3.58691C21.9822 3.89244 21.3251 4.33995 20.7749 4.90311L17.8999 7.85311L13.7749 7.80311C12.988 7.79432 12.2072 7.94288 11.4785 8.24007C10.7498 8.53727 10.0878 8.9771 9.53146 9.53374C8.97511 10.0904 8.53563 10.7526 8.23881 11.4815C7.942 12.2103 7.79384 12.9912 7.80305 13.7781L7.85305 17.8969L4.90305 20.775C4.33988 21.3251 3.89238 21.9823 3.58685 22.7078C3.28132 23.4334 3.12393 24.2127 3.12393 25C3.12393 25.7873 3.28132 26.5666 3.58685 27.2921C3.89238 28.0177 4.33988 28.6749 4.90305 29.225L7.85305 32.1L7.80305 36.225C7.79425 37.0119 7.94282 37.7927 8.24001 38.5214C8.53721 39.2501 8.97704 39.9121 9.53368 40.4685C10.0903 41.0248 10.7525 41.4643 11.4814 41.7611C12.2103 42.0579 12.9911 42.2061 13.7781 42.1969L17.8968 42.1469L20.7749 45.0969C21.3251 45.66 21.9822 46.1075 22.7078 46.4131C23.4333 46.7186 24.2127 46.876 24.9999 46.876C25.7872 46.876 26.5665 46.7186 27.2921 46.4131C28.0177 46.1075 28.6748 45.66 29.2249 45.0969L32.0999 42.1469L36.2249 42.1969C37.0119 42.2057 37.7926 42.0571 38.5214 41.7599C39.2501 41.4627 39.9121 41.0229 40.4684 40.4662C41.0247 39.9096 41.4642 39.2474 41.761 38.5185C42.0579 37.7896 42.206 37.0088 42.1968 36.2219L42.1468 32.1031L45.0968 29.225C45.66 28.6749 46.1075 28.0177 46.413 27.2921C46.7185 26.5666 46.8759 25.7873 46.8759 25C46.8759 24.2127 46.7185 23.4334 46.413 22.7078C46.1075 21.9823 45.66 21.3251 45.0968 20.775L42.1468 17.9L42.1968 13.775C42.2056 12.988 42.057 12.2073 41.7598 11.4786C41.4627 10.7498 41.0228 10.0879 40.4662 9.53152C39.9095 8.97517 39.2473 8.53569 38.5185 8.23887C37.7896 7.94206 37.0087 7.7939 36.2218 7.80311L32.1031 7.85311Z" fill="#1B998B"/>
</svg>
