<svg width="44" height="44" viewBox="0 0 44 44" fill="none" xmlns="http://www.w3.org/2000/svg">
<path d="M17.3125 23.9688V6.375C17.3125 4.7174 16.654 3.12769 15.4819 1.95558C14.3098 0.78348 12.7201 0.125 11.0625 0.125C9.4049 0.125 7.81518 0.78348 6.64308 1.95558C5.47098 3.12769 4.8125 4.7174 4.8125 6.375V23.9688C2.90159 25.2993 1.46519 27.2051 0.712379 29.4085C-0.0404333 31.612 -0.0703715 33.9983 0.626922 36.2199C1.32422 38.4416 2.71235 40.3828 4.58928 41.7609C6.4662 43.139 8.73397 43.8821 11.0625 43.8821C13.391 43.8821 15.6588 43.139 17.5357 41.7609C19.4127 40.3828 20.8008 38.4416 21.4981 36.2199C22.1954 33.9983 22.1654 31.612 21.4126 29.4085C20.6598 27.2051 19.2234 25.2993 17.3125 23.9688ZM11.0625 3.25C11.8913 3.25 12.6862 3.57924 13.2722 4.16529C13.8583 4.75134 14.1875 5.5462 14.1875 6.375V17.3125H7.9375V6.375C7.9375 5.5462 8.26674 4.75134 8.85279 4.16529C9.43884 3.57924 10.2337 3.25 11.0625 3.25ZM11.0625 40.75C9.34276 40.7499 7.67111 40.1824 6.30677 39.1355C4.94243 38.0885 3.96166 36.6207 3.51655 34.9595C3.07145 33.2984 3.18688 31.5368 3.84495 29.948C4.50303 28.3591 5.66696 27.0318 7.15625 26.1719L7.9375 25.7344V20.4375H14.1875V25.7344L14.9688 26.1719C16.458 27.0318 17.622 28.3591 18.28 29.948C18.9381 31.5368 19.0536 33.2984 18.6084 34.9595C18.1633 36.6207 17.1826 38.0885 15.8182 39.1355C14.4539 40.1824 12.7822 40.7499 11.0625 40.75ZM28.25 3.25H43.875V6.375H28.25V3.25ZM28.25 12.625H39.1875V15.75H28.25V12.625ZM28.25 22H43.875V25.125H28.25V22ZM28.25 31.375H39.1875V34.5H28.25V31.375Z" fill="#1B998B"/>
</svg>
