<svg width="47" height="45" viewBox="0 0 47 45" fill="none" xmlns="http://www.w3.org/2000/svg">
<path d="M35.7638 44.2222C35.15 44.2217 34.5503 44.0379 34.0416 43.6945L23.6804 36.75C23.6294 36.7148 23.5689 36.6959 23.5068 36.6959C23.4448 36.6959 23.3843 36.7148 23.3332 36.75L12.9721 43.6945C12.4518 44.0419 11.8382 44.2228 11.2126 44.2132C10.5871 44.2036 9.97927 44.0039 9.46989 43.6407C8.9605 43.2775 8.57365 42.768 8.36071 42.1797C8.14776 41.5915 8.1188 40.9523 8.27767 40.3472L11.6804 28.3472C11.6965 28.2869 11.6946 28.2232 11.6748 28.1639C11.6551 28.1047 11.6184 28.0525 11.5693 28.0139L1.76378 20.3056C1.24758 19.921 0.864676 19.3846 0.668755 18.7714C0.472834 18.1583 0.473721 17.4992 0.67129 16.8866C0.86886 16.2739 1.25321 15.7385 1.77043 15.3554C2.28766 14.9722 2.91184 14.7605 3.55544 14.75L16.0554 14.2778C16.1169 14.2735 16.1758 14.2516 16.2251 14.2147C16.2744 14.1777 16.3119 14.1273 16.3332 14.0695L20.6388 2.36113C20.8558 1.76757 21.25 1.25504 21.7679 0.892925C22.2859 0.530812 22.9026 0.336609 23.5346 0.336609C24.1666 0.336609 24.7833 0.530812 25.3013 0.892925C25.8192 1.25504 26.2134 1.76757 26.4304 2.36113L30.736 14.0695C30.7573 14.1273 30.7948 14.1777 30.8441 14.2147C30.8934 14.2516 30.9523 14.2735 31.0138 14.2778L43.5138 14.75C44.1574 14.7605 44.7816 14.9722 45.2988 15.3554C45.816 15.7385 46.2004 16.2739 46.3979 16.8866C46.5955 17.4992 46.5964 18.1583 46.4005 18.7714C46.2045 19.3846 45.8216 19.921 45.3054 20.3056L35.4999 28.0139C35.4493 28.0513 35.4115 28.1033 35.3916 28.163C35.3717 28.2227 35.3707 28.287 35.3888 28.3472L38.7916 40.3472C38.911 40.8075 38.9228 41.2891 38.8262 41.7547C38.7295 42.2203 38.527 42.6574 38.2342 43.0321C37.9414 43.4068 37.5663 43.7091 37.1379 43.9155C36.7095 44.1219 36.2393 44.2268 35.7638 44.2222V44.2222ZM23.5138 33.9167C24.1288 33.9355 24.724 34.1387 25.2221 34.5L35.5832 41.4445C35.6357 41.4844 35.6997 41.5062 35.7657 41.5067C35.8316 41.5073 35.896 41.4864 35.9491 41.4474C36.0023 41.4083 36.0413 41.3531 36.0605 41.29C36.0797 41.2269 36.0779 41.1593 36.0554 41.0972L32.6527 29.0972C32.4852 28.5086 32.4976 27.8833 32.6881 27.3017C32.8787 26.7201 33.2388 26.2088 33.7221 25.8333L43.5277 18.125C43.5812 18.0874 43.6212 18.0337 43.6419 17.9717C43.6626 17.9097 43.6628 17.8427 43.6426 17.7805C43.6224 17.7184 43.5828 17.6643 43.5296 17.6263C43.4764 17.5883 43.4125 17.5684 43.3471 17.5695L30.8471 17.0972C30.2351 17.0734 29.644 16.8678 29.1492 16.5066C28.6545 16.1455 28.2786 15.6451 28.0693 15.0695L23.7638 3.36113C23.7444 3.29896 23.7056 3.24462 23.6531 3.20604C23.6007 3.16745 23.5372 3.14665 23.4721 3.14665C23.407 3.14665 23.3436 3.16745 23.2911 3.20604C23.2386 3.24462 23.1999 3.29896 23.1804 3.36113L18.9166 15.0556C18.7073 15.6313 18.3314 16.1316 17.8366 16.4927C17.3419 16.8539 16.7508 17.0595 16.1388 17.0833L3.63878 17.5556C3.57342 17.5545 3.50945 17.5744 3.45625 17.6124C3.40306 17.6504 3.36346 17.7045 3.34325 17.7666C3.32305 17.8288 3.32331 17.8958 3.34401 17.9578C3.3647 18.0198 3.40473 18.0736 3.45822 18.1111L13.2777 25.8333C13.7595 26.21 14.1185 26.7214 14.3089 27.3026C14.4994 27.8838 14.5127 28.5085 14.3471 29.0972L10.9582 41.0972C10.938 41.1573 10.9379 41.2224 10.9579 41.2825C10.978 41.3427 11.0171 41.3946 11.0693 41.4306C11.1196 41.4736 11.1837 41.4973 11.2499 41.4973C11.3161 41.4973 11.3801 41.4736 11.4304 41.4306L21.7916 34.4861C22.2979 34.1502 22.8922 33.9715 23.4999 33.9722L23.5138 33.9167Z" fill="#1B998B"/>
</svg>
