<svg width="138" height="31" viewBox="0 0 138 31" fill="none" xmlns="http://www.w3.org/2000/svg">
<path d="M10.536 6.208C9.08 5.648 7.704 5.368 6.408 5.368C5.128 5.368 4.128 5.64 3.408 6.184C2.688 6.728 2.328 7.48 2.328 8.44C2.328 9.608 2.936 10.512 4.152 11.152C4.696 11.424 5.288 11.68 5.928 11.92C6.584 12.144 7.24 12.4 7.896 12.688C8.552 12.976 9.152 13.304 9.696 13.672C10.24 14.04 10.68 14.552 11.016 15.208C11.352 15.848 11.52 16.672 11.52 17.68C11.52 18.672 11.24 19.52 10.68 20.224C10.12 20.928 9.44 21.408 8.64 21.664C7.856 21.904 6.936 22.024 5.88 22.024C3.912 22.024 2.232 21.536 0.84 20.56L0.96 20.368C1.488 20.784 2.168 21.128 3 21.4C3.848 21.656 4.712 21.784 5.592 21.784C6.888 21.784 7.992 21.488 8.904 20.896C9.832 20.288 10.296 19.4 10.296 18.232C10.296 16.952 9.688 15.952 8.472 15.232C7.928 14.912 7.328 14.616 6.672 14.344C6.032 14.072 5.384 13.792 4.728 13.504C4.072 13.2 3.472 12.864 2.928 12.496C1.712 11.696 1.104 10.56 1.104 9.088C1.104 7.92 1.496 6.976 2.28 6.256C3.064 5.52 4.24 5.152 5.808 5.152C7.392 5.152 9 5.424 10.632 5.968L10.536 6.208ZM19.2212 22H17.2292V5.44H13.0772V5.2H23.3972V5.44H19.2212V22ZM24.1331 14.008C24.1331 11.096 24.8371 8.888 26.2451 7.384C27.6691 5.864 29.4931 5.104 31.7171 5.104C33.9411 5.104 35.7091 5.76 37.0211 7.072C38.3491 8.384 39.0131 10.48 39.0131 13.36C39.0131 16.24 38.3091 18.416 36.9011 19.888C35.4931 21.36 33.6131 22.096 31.2611 22.096C29.2291 22.096 27.5651 21.512 26.2691 20.344C25.5971 19.736 25.0691 18.896 24.6851 17.824C24.3171 16.736 24.1331 15.464 24.1331 14.008ZM31.6451 5.344C30.0291 5.344 28.7011 6.064 27.6611 7.504C26.6371 8.944 26.1251 11.056 26.1251 13.84C26.1251 16.624 26.6131 18.656 27.5891 19.936C28.5651 21.216 29.8611 21.856 31.4771 21.856C33.1091 21.856 34.4371 21.136 35.4611 19.696C36.5011 18.24 37.0211 16.136 37.0211 13.384C37.0211 10.616 36.5251 8.584 35.5331 7.288C34.5571 5.992 33.2611 5.344 31.6451 5.344ZM42.0842 22H41.7722V5.2H42.5882L52.5722 20.728V5.2H52.8842V22H51.1322L42.0842 8.08V22ZM65.9107 5.2V5.44H58.3507V12.64H65.3587V12.88H58.3507V21.76H66.4387V22H56.3587V5.2H65.9107Z" fill="white"/>
<path d="M68.6 5.224C69.304 5.192 69.992 5.176 70.664 5.176C71.352 5.176 72.072 5.248 72.824 5.392C73.592 5.536 74.344 5.808 75.08 6.208C75.832 6.592 76.464 7.096 76.976 7.72C77.504 8.328 77.928 9.136 78.248 10.144C78.568 11.152 78.728 12.376 78.728 13.816C78.728 15.256 78.488 16.552 78.008 17.704C77.544 18.84 76.904 19.712 76.088 20.32C74.504 21.504 72.592 22.096 70.352 22.096C69.568 22.096 68.744 22.064 67.88 22H66.68V5.224H68.6ZM68.672 21.808C69.008 21.84 69.432 21.856 69.944 21.856C70.456 21.856 70.84 21.848 71.096 21.832C71.352 21.816 71.704 21.752 72.152 21.64C72.6 21.512 73.016 21.344 73.4 21.136C73.784 20.928 74.184 20.624 74.6 20.224C75.032 19.808 75.4 19.32 75.704 18.76C76.392 17.448 76.736 15.736 76.736 13.624C76.736 12.12 76.552 10.824 76.184 9.736C75.816 8.632 75.392 7.816 74.912 7.288C74.448 6.76 73.88 6.344 73.208 6.04C72.536 5.72 72 5.536 71.6 5.488C71.2 5.44 70.736 5.416 70.208 5.416C69.68 5.416 69.168 5.44 68.672 5.488V21.808ZM91.1673 5.2V5.44H83.6073V12.64H90.6153V12.88H83.6073V21.76H91.6953V22H81.6153V5.2H91.1673ZM101.634 22.096C98.6421 22.096 96.4261 21.248 94.9861 19.552C94.4741 18.944 94.0581 18.136 93.7381 17.128C93.4181 16.12 93.2581 14.896 93.2581 13.456C93.2581 12.016 93.4901 10.728 93.9541 9.592C94.4341 8.44 95.0821 7.552 95.8981 6.928C97.4821 5.76 99.3941 5.176 101.634 5.176C102.274 5.176 102.898 5.232 103.506 5.344C104.114 5.44 104.57 5.544 104.874 5.656L105.306 5.824L105.234 6.064C104.146 5.632 102.946 5.416 101.634 5.416C99.9381 5.416 98.5221 5.968 97.3861 7.072C96.5221 7.888 95.9141 9.088 95.5621 10.672C95.3541 11.568 95.2501 12.664 95.2501 13.96C95.2501 15.256 95.4341 16.456 95.8021 17.56C96.1701 18.648 96.5861 19.456 97.0501 19.984C97.5301 20.512 98.1061 20.936 98.7781 21.256C99.4501 21.56 99.9861 21.736 100.386 21.784C100.786 21.832 101.266 21.856 101.826 21.856C102.402 21.856 103.05 21.8 103.77 21.688C104.49 21.576 105.034 21.472 105.402 21.376L105.954 21.208L106.026 21.448C104.81 21.88 103.346 22.096 101.634 22.096ZM107.115 14.008C107.115 11.096 107.819 8.888 109.227 7.384C110.651 5.864 112.475 5.104 114.699 5.104C116.923 5.104 118.691 5.76 120.003 7.072C121.331 8.384 121.995 10.48 121.995 13.36C121.995 16.24 121.291 18.416 119.883 19.888C118.475 21.36 116.595 22.096 114.243 22.096C112.211 22.096 110.547 21.512 109.251 20.344C108.579 19.736 108.051 18.896 107.667 17.824C107.299 16.736 107.115 15.464 107.115 14.008ZM114.627 5.344C113.011 5.344 111.683 6.064 110.643 7.504C109.619 8.944 109.107 11.056 109.107 13.84C109.107 16.624 109.595 18.656 110.571 19.936C111.547 21.216 112.843 21.856 114.459 21.856C116.091 21.856 117.419 21.136 118.443 19.696C119.483 18.24 120.003 16.136 120.003 13.384C120.003 10.616 119.507 8.584 118.515 7.288C117.539 5.992 116.243 5.344 114.627 5.344ZM124.874 5.392C126.73 5.264 128.37 5.2 129.794 5.2C133.746 5.2 135.722 6.52 135.722 9.16C135.722 10.28 135.45 11.28 134.906 12.16C134.362 13.04 133.426 13.624 132.098 13.912L136.898 22H134.666L129.962 14.056H126.866V22H124.874V5.392ZM129.794 5.44C128.866 5.44 127.89 5.496 126.866 5.608V13.816H130.418C132.674 13.72 133.802 12.184 133.802 9.208C133.802 7.992 133.466 7.064 132.794 6.424C132.122 5.768 131.122 5.44 129.794 5.44Z" fill="#1B998B"/>
</svg>
