<svg width="17" height="13" viewBox="0 0 17 13" fill="none" xmlns="http://www.w3.org/2000/svg">
<path d="M16.1653 1.00002C16.0972 0.992995 16.0285 0.992995 15.9603 1.00002H1.96031C1.87058 1.0014 1.78145 1.01485 1.69531 1.04002L8.92031 8.23502L16.1653 1.00002Z" fill="white"/>
<path d="M16.9048 1.69507L9.62484 8.94507C9.43748 9.13132 9.18403 9.23586 8.91984 9.23586C8.65566 9.23586 8.40221 9.13132 8.21484 8.94507L0.999844 1.75007C0.977663 1.83159 0.965903 1.91559 0.964844 2.00007V12.0001C0.964844 12.2653 1.0702 12.5196 1.25774 12.7072C1.44527 12.8947 1.69963 13.0001 1.96484 13.0001H15.9648C16.2301 13.0001 16.4844 12.8947 16.672 12.7072C16.8595 12.5196 16.9648 12.2653 16.9648 12.0001V2.00007C16.9609 1.8959 16.9406 1.79299 16.9048 1.69507V1.69507ZM2.64984 12.0001H1.95484V11.2851L5.58984 7.68007L6.29484 8.38507L2.64984 12.0001ZM15.9548 12.0001H15.2548L11.6098 8.38507L12.3148 7.68007L15.9498 11.2851L15.9548 12.0001Z" fill="white"/>
</svg>
