<svg width="14" height="14" viewBox="0 0 14 14" fill="none" xmlns="http://www.w3.org/2000/svg">
<path d="M12.4225 9.44501L10.5175 9.22751C10.2935 9.2012 10.0665 9.226 9.85345 9.30004C9.64041 9.37409 9.44693 9.49545 9.28753 9.65501L7.90753 11.035C5.77842 9.95217 4.04787 8.22162 2.96503 6.09251L4.35253 4.70501C4.67503 4.38251 4.83253 3.93251 4.78003 3.47501L4.56253 1.58501C4.52001 1.21914 4.34443 0.881685 4.06921 0.636894C3.79399 0.392102 3.43836 0.257071 3.07003 0.257508H1.77253C0.925031 0.257508 0.22003 0.962508 0.27253 1.81001C0.67003 8.21501 5.79253 13.33 12.19 13.7275C13.0375 13.78 13.7425 13.075 13.7425 12.2275V10.93C13.75 10.1725 13.18 9.53501 12.4225 9.44501Z" fill="white"/>
</svg>
