<svg width="80" height="80" viewBox="0 0 80 80" fill="none" xmlns="http://www.w3.org/2000/svg">
<path d="M4.49967 73.775L19.4413 58.8333H66.9997C69.2098 58.8333 71.3294 57.9554 72.8922 56.3926C74.455 54.8298 75.333 52.7101 75.333 50.5V13C75.333 10.7899 74.455 8.67025 72.8922 7.10744C71.3294 5.54464 69.2098 4.66667 66.9997 4.66667H12.833C10.6229 4.66667 8.50325 5.54464 6.94045 7.10744C5.37765 8.67025 4.49967 10.7899 4.49967 13V73.775ZM4.49967 79.6667H0.333008V13C0.333008 9.68479 1.64997 6.50537 3.99417 4.16117C6.33838 1.81696 9.5178 0.5 12.833 0.5H66.9997C70.3149 0.5 73.4943 1.81696 75.8385 4.16117C78.1827 6.50537 79.4997 9.68479 79.4997 13V50.5C79.4997 53.8152 78.1827 56.9946 75.8385 59.3388C73.4943 61.683 70.3149 63 66.9997 63H21.1663L4.49967 79.6667ZM19.083 25.5C20.7406 25.5 22.3303 26.1585 23.5024 27.3306C24.6745 28.5027 25.333 30.0924 25.333 31.75C25.333 33.4076 24.6745 34.9973 23.5024 36.1694C22.3303 37.3415 20.7406 38 19.083 38C17.4254 38 15.8357 37.3415 14.6636 36.1694C13.4915 34.9973 12.833 33.4076 12.833 31.75C12.833 30.0924 13.4915 28.5027 14.6636 27.3306C15.8357 26.1585 17.4254 25.5 19.083 25.5ZM19.083 29.6667C18.5305 29.6667 18.0006 29.8862 17.6099 30.2769C17.2192 30.6676 16.9997 31.1975 16.9997 31.75C16.9997 32.3025 17.2192 32.8324 17.6099 33.2231C18.0006 33.6138 18.5305 33.8333 19.083 33.8333C19.6355 33.8333 20.1654 33.6138 20.5561 33.2231C20.9468 32.8324 21.1663 32.3025 21.1663 31.75C21.1663 31.1975 20.9468 30.6676 20.5561 30.2769C20.1654 29.8862 19.6355 29.6667 19.083 29.6667ZM39.9163 25.5C41.5739 25.5 43.1637 26.1585 44.3358 27.3306C45.5079 28.5027 46.1663 30.0924 46.1663 31.75C46.1663 33.4076 45.5079 34.9973 44.3358 36.1694C43.1637 37.3415 41.5739 38 39.9163 38C38.2587 38 36.669 37.3415 35.4969 36.1694C34.3248 34.9973 33.6663 33.4076 33.6663 31.75C33.6663 30.0924 34.3248 28.5027 35.4969 27.3306C36.669 26.1585 38.2587 25.5 39.9163 25.5ZM39.9163 29.6667C39.3638 29.6667 38.8339 29.8862 38.4432 30.2769C38.0525 30.6676 37.833 31.1975 37.833 31.75C37.833 32.3025 38.0525 32.8324 38.4432 33.2231C38.8339 33.6138 39.3638 33.8333 39.9163 33.8333C40.4689 33.8333 40.9988 33.6138 41.3895 33.2231C41.7802 32.8324 41.9997 32.3025 41.9997 31.75C41.9997 31.1975 41.7802 30.6676 41.3895 30.2769C40.9988 29.8862 40.4689 29.6667 39.9163 29.6667ZM60.7497 25.5C62.4073 25.5 63.997 26.1585 65.1691 27.3306C66.3412 28.5027 66.9997 30.0924 66.9997 31.75C66.9997 33.4076 66.3412 34.9973 65.1691 36.1694C63.997 37.3415 62.4073 38 60.7497 38C59.0921 38 57.5024 37.3415 56.3303 36.1694C55.1582 34.9973 54.4997 33.4076 54.4997 31.75C54.4997 30.0924 55.1582 28.5027 56.3303 27.3306C57.5024 26.1585 59.0921 25.5 60.7497 25.5ZM60.7497 29.6667C60.1971 29.6667 59.6672 29.8862 59.2765 30.2769C58.8858 30.6676 58.6663 31.1975 58.6663 31.75C58.6663 32.3025 58.8858 32.8324 59.2765 33.2231C59.6672 33.6138 60.1971 33.8333 60.7497 33.8333C61.3022 33.8333 61.8321 33.6138 62.2228 33.2231C62.6135 32.8324 62.833 32.3025 62.833 31.75C62.833 31.1975 62.6135 30.6676 62.2228 30.2769C61.8321 29.8862 61.3022 29.6667 60.7497 29.6667Z" fill="#1B998B"/>
</svg>
