<svg width="14" height="12" viewBox="0 0 14 12" fill="none" xmlns="http://www.w3.org/2000/svg">
<path d="M14 9.50001C14 9.91257 13.8361 10.3082 13.5444 10.6C13.2527 10.8917 12.857 11.0556 12.4444 11.0556H1.55556C1.143 11.0556 0.747335 10.8917 0.455612 10.6C0.163888 10.3082 0 9.91257 0 9.50001V7.94446H14V9.50001Z" fill="#CE2028"/>
<path d="M0 4.05554H14V7.94443H0V4.05554Z" fill="#22408C"/>
<path d="M12.4444 0.944458H1.55556C1.143 0.944458 0.747335 1.10835 0.455612 1.40007C0.163888 1.69179 0 2.08745 0 2.50001L0 4.05557H14V2.50001C14 2.08745 13.8361 1.69179 13.5444 1.40007C13.2527 1.10835 12.857 0.944458 12.4444 0.944458Z" fill="#EEEEEE"/>
</svg>
