<svg width="22" height="23" viewBox="0 0 22 23" fill="none" xmlns="http://www.w3.org/2000/svg">
<path d="M11 0.5C5.23375 0.5 0.5 4.99487 0.5 10.5625C0.5 13.5288 1.87375 16.1643 4 18V22.0469L7.88325 20.1052C8.87025 20.4028 9.90275 20.625 11 20.625C16.7663 20.625 21.5 16.1301 21.5 10.5625C21.5 4.99487 16.7663 0.5 11 0.5ZM11 2.25C15.8641 2.25 19.75 5.98275 19.75 10.5625C19.75 15.1423 15.8641 18.875 11 18.875C9.95438 18.875 8.956 18.6764 8.01975 18.3552L7.6645 18.2459L5.75 19.2031V17.2344L5.42188 16.9605C3.48025 15.4301 2.25 13.1368 2.25 10.5625C2.25 5.98275 6.13587 2.25 11 2.25ZM10.0156 7.801L4.7385 13.3791L9.46875 10.7541L11.9844 13.4614L17.2073 7.80013L12.5855 10.3989L10.0156 7.801Z" fill="#1B998B"/>
</svg>
