<svg width="22" height="23" viewBox="0 0 22 23" fill="none" xmlns="http://www.w3.org/2000/svg">
<path d="M10.7374 0.5C9.07493 0.5 4.96243 0.675 2.77493 2.775C1.19993 4.2625 0.58743 6.5375 0.49993 9.25C0.32493 13.5375 1.28743 16.25 2.86243 17.65C3.21243 17.9125 4.08743 18.6125 5.74993 19.1375V21.325C5.74993 21.325 5.74993 22.2 6.27493 22.375C6.36243 22.375 6.44993 22.4625 6.53743 22.4625C7.06243 22.4625 7.49993 21.85 8.11243 21.2375C8.63743 20.625 9.07493 20.1875 9.33743 19.75H11.2624C12.9249 19.75 17.0374 19.575 19.2249 17.475C20.7999 15.9 21.4124 13.625 21.4124 10.7375C21.4999 10.3 21.4999 9.775 21.4999 9.25C21.4124 6.0125 20.4499 3.825 19.1374 2.6C18.6124 2.1625 16.3374 0.5 11.4374 0.5H10.7374ZM10.5624 2.1625H11.3499C15.9874 2.1625 17.7374 3.65 17.9124 3.825C18.9624 4.7 19.5749 6.625 19.6624 9.1625V9.5125C19.7499 10.0375 19.7499 10.475 19.7499 10.7375C19.6624 13.3625 19.1374 15.1125 18.0874 16.25C16.2499 17.9125 12.3999 18 11.3499 18H9.68743L8.28743 19.575L7.41243 20.5375L7.23743 20.8C7.06243 20.975 6.79993 21.325 6.62493 21.4125V17.475C4.87493 17.0375 4.17493 16.425 3.99993 16.25C2.77493 15.2 2.07493 12.6625 2.24993 9.25V8.375C2.42493 6.275 2.94993 4.875 3.82493 3.9125C5.66243 2.25 9.51243 2.1625 10.5624 2.1625ZM10.4749 4.0875C10.0374 4.0875 10.0374 4.7 10.4749 4.7C13.7124 4.7 16.5124 6.8875 16.5124 11C16.5124 11.4375 17.1249 11.4375 17.1249 11C17.1249 6.5375 14.1499 4 10.4749 4.0875ZM7.00731 4.89687C6.80905 4.87312 6.60935 4.92775 6.4508 5.04913C5.5758 5.48663 4.69993 6.36337 4.96243 7.32587C4.96243 7.32587 5.13743 8.1125 6.09993 9.775C6.62493 10.5625 7.06243 11.2625 7.49993 11.7875C7.93743 12.4 8.63743 13.1 9.33743 13.625C10.7374 14.7625 12.9249 15.9 13.8874 16.1625C14.7624 16.425 15.7249 15.55 16.1624 14.675C16.3374 14.325 16.2499 13.8875 15.8999 13.625C15.3749 13.1 14.4999 12.4875 13.8874 12.1375C13.4499 11.875 12.9249 12.05 12.7499 12.3125L12.3124 12.8375C12.1374 13.1 11.6999 13.1 11.6999 13.1C8.81243 12.3125 8.02493 9.3375 8.02493 9.3375C8.02493 9.3375 8.02493 8.9875 8.28743 8.725L8.81243 8.2875C9.07493 8.1125 9.24993 7.5875 8.98743 7.15C8.81243 6.8875 8.54993 6.3625 8.28743 6.1C8.02493 5.75 7.49993 5.1375 7.49993 5.1375C7.36718 5.00456 7.19377 4.91986 7.00731 4.89687ZM11.0874 5.8375C10.6499 5.75 10.5624 6.45 10.9999 6.45C13.4499 6.625 14.8499 8.2875 14.7624 10.3875C14.6749 10.825 15.3749 10.825 15.3749 10.3875C15.4624 7.9375 13.8874 5.925 11.0874 5.8375ZM11.3499 7.5C10.9124 7.4125 10.9124 8.1125 11.3499 8.1125C12.3999 8.1125 12.9249 8.725 12.9249 9.775C13.0124 10.2125 13.6249 10.2125 13.6249 9.775C13.5374 8.375 12.7499 7.5 11.3499 7.5Z" fill="#1B998B"/>
</svg>
